<svg xmlns="http://www.w3.org/2000/svg" viewBox="0 0 25 31.25" x="0px" y="0px"><title>History</title><g data-name="Layer 20"><path d="M23,12.5A10.5,10.5,0,1,1,12.5,2c2.5,0,4.68.58,7.5,3.29V3.65a.5.5,0,1,1,1,0V6.39s0,0,0,.06a.49.49,0,0,1-.55.54H17.65a.5.5,0,0,1,0-1H19.3c-2.58-2.47-4.55-3-6.8-3A9.5,9.5,0,1,0,22,12.5a9.39,9.39,0,0,0-.48-3,.51.51,0,0,1,.32-.63.5.5,0,0,1,.63.32A10.44,10.44,0,0,1,23,12.5ZM12.5,6a.5.5,0,0,0-.5.5v6.21l3.15,3.14a.48.48,0,0,0,.7,0,.48.48,0,0,0,0-.7L13,12.29V6.5A.5.5,0,0,0,12.5,6Z"/></g><text x="0" y="40" fill="#000000" font-size="5px" font-weight="bold" font-family="'Helvetica Neue', Helvetica, Arial-Unicode, Arial, Sans-serif">Created by Caesar Rizky Kurniawan</text><text x="0" y="45" fill="#000000" font-size="5px" font-weight="bold" font-family="'Helvetica Neue', Helvetica, Arial-Unicode, Arial, Sans-serif">from the Noun Project</text></svg>